<mxfile host="app.diagrams.net" modified="2021-11-17T13:35:09.093Z" agent="5.0 (Windows NT 10.0; Win64; x64) AppleWebKit/537.36 (KHTML, like Gecko) Chrome/95.0.4638.69 Safari/537.36" etag="Af6yh6LBoa3Wxq7osXol" version="15.7.4" type="github">
  <diagram id="c5FkF34iUtAXjtPr8lv-" name="Page-1">
    <mxGraphModel dx="1865" dy="539" grid="1" gridSize="10" guides="1" tooltips="1" connect="1" arrows="1" fold="1" page="1" pageScale="1" pageWidth="827" pageHeight="1169" math="0" shadow="0">
      <root>
        <mxCell id="0" />
        <mxCell id="1" parent="0" />
        <mxCell id="hlwljTOc6sQai6QMBjsx-1" value="ผู้สมัคร" style="whiteSpace=wrap;html=1;align=center;" parent="1" vertex="1">
          <mxGeometry x="228.75" y="210" width="100" height="40" as="geometry" />
        </mxCell>
        <mxCell id="hlwljTOc6sQai6QMBjsx-3" value="เลขประจำตัวประชาชน" style="ellipse;whiteSpace=wrap;html=1;align=center;fontStyle=4;" parent="1" vertex="1">
          <mxGeometry x="138.75" y="60" width="100" height="40" as="geometry" />
        </mxCell>
        <mxCell id="hlwljTOc6sQai6QMBjsx-5" value="ชื่อ" style="ellipse;whiteSpace=wrap;html=1;align=center;" parent="1" vertex="1">
          <mxGeometry x="78.75" y="120" width="70" height="30" as="geometry" />
        </mxCell>
        <mxCell id="hlwljTOc6sQai6QMBjsx-6" value="ชื่อ" style="ellipse;whiteSpace=wrap;html=1;align=center;" parent="1" vertex="1">
          <mxGeometry x="-55" y="90" width="50" height="30" as="geometry" />
        </mxCell>
        <mxCell id="hlwljTOc6sQai6QMBjsx-7" value="นามสกุล" style="ellipse;whiteSpace=wrap;html=1;align=center;" parent="1" vertex="1">
          <mxGeometry x="28.75" y="65" width="50" height="30" as="geometry" />
        </mxCell>
        <mxCell id="hlwljTOc6sQai6QMBjsx-8" value="" style="endArrow=none;html=1;rounded=0;entryX=0.5;entryY=1;entryDx=0;entryDy=0;exitX=0.5;exitY=0;exitDx=0;exitDy=0;" parent="1" source="hlwljTOc6sQai6QMBjsx-5" target="hlwljTOc6sQai6QMBjsx-7" edge="1">
          <mxGeometry relative="1" as="geometry">
            <mxPoint x="-41.25" y="150" as="sourcePoint" />
            <mxPoint x="118.75" y="150" as="targetPoint" />
          </mxGeometry>
        </mxCell>
        <mxCell id="hlwljTOc6sQai6QMBjsx-12" value="" style="endArrow=none;html=1;rounded=0;exitX=0.5;exitY=1;exitDx=0;exitDy=0;entryX=0.5;entryY=0;entryDx=0;entryDy=0;" parent="1" source="hlwljTOc6sQai6QMBjsx-6" target="hlwljTOc6sQai6QMBjsx-5" edge="1">
          <mxGeometry relative="1" as="geometry">
            <mxPoint x="-41.25" y="150" as="sourcePoint" />
            <mxPoint x="118.75" y="150" as="targetPoint" />
          </mxGeometry>
        </mxCell>
        <mxCell id="hlwljTOc6sQai6QMBjsx-13" value="เพศ" style="ellipse;whiteSpace=wrap;html=1;align=center;" parent="1" vertex="1">
          <mxGeometry x="360" y="70" width="70" height="30" as="geometry" />
        </mxCell>
        <mxCell id="hlwljTOc6sQai6QMBjsx-14" value="สัญชาติ" style="ellipse;whiteSpace=wrap;html=1;align=center;" parent="1" vertex="1">
          <mxGeometry x="263.75" y="70" width="70" height="30" as="geometry" />
        </mxCell>
        <mxCell id="hlwljTOc6sQai6QMBjsx-15" value="วันเกิด" style="ellipse;whiteSpace=wrap;html=1;align=center;" parent="1" vertex="1">
          <mxGeometry x="58.75" y="230" width="70" height="30" as="geometry" />
        </mxCell>
        <mxCell id="hlwljTOc6sQai6QMBjsx-18" value="อายุ" style="ellipse;whiteSpace=wrap;html=1;align=center;dashed=1;" parent="1" vertex="1">
          <mxGeometry x="400" y="120" width="50" height="30" as="geometry" />
        </mxCell>
        <mxCell id="hlwljTOc6sQai6QMBjsx-25" value="บิดา" style="whiteSpace=wrap;html=1;align=center;" parent="1" vertex="1">
          <mxGeometry x="590" y="770" width="100" height="40" as="geometry" />
        </mxCell>
        <mxCell id="hlwljTOc6sQai6QMBjsx-26" value="เลขประจำตัวประชาชน" style="ellipse;whiteSpace=wrap;html=1;align=center;fontStyle=4;" parent="1" vertex="1">
          <mxGeometry x="655" y="870" width="100" height="40" as="geometry" />
        </mxCell>
        <mxCell id="hlwljTOc6sQai6QMBjsx-27" value="ที่อยู่" style="ellipse;whiteSpace=wrap;html=1;align=center;" parent="1" vertex="1">
          <mxGeometry x="540" y="875" width="70" height="30" as="geometry" />
        </mxCell>
        <mxCell id="hlwljTOc6sQai6QMBjsx-28" value="บ้านเลข่ที่" style="ellipse;whiteSpace=wrap;html=1;align=center;" parent="1" vertex="1">
          <mxGeometry x="430" y="1000" width="50" height="30" as="geometry" />
        </mxCell>
        <mxCell id="hlwljTOc6sQai6QMBjsx-29" value="หมู่" style="ellipse;whiteSpace=wrap;html=1;align=center;" parent="1" vertex="1">
          <mxGeometry x="470" y="1030" width="50" height="30" as="geometry" />
        </mxCell>
        <mxCell id="hlwljTOc6sQai6QMBjsx-32" value="เพศ" style="ellipse;whiteSpace=wrap;html=1;align=center;" parent="1" vertex="1">
          <mxGeometry x="770" y="760" width="70" height="30" as="geometry" />
        </mxCell>
        <mxCell id="hlwljTOc6sQai6QMBjsx-33" value="สัญชาติ" style="ellipse;whiteSpace=wrap;html=1;align=center;" parent="1" vertex="1">
          <mxGeometry x="430" y="760.28" width="70" height="30" as="geometry" />
        </mxCell>
        <mxCell id="hlwljTOc6sQai6QMBjsx-34" value="วันเกิด" style="ellipse;whiteSpace=wrap;html=1;align=center;" parent="1" vertex="1">
          <mxGeometry x="450" y="710" width="70" height="30" as="geometry" />
        </mxCell>
        <mxCell id="hlwljTOc6sQai6QMBjsx-35" value="อายุ" style="ellipse;whiteSpace=wrap;html=1;align=center;dashed=1;" parent="1" vertex="1">
          <mxGeometry x="764" y="830" width="50" height="30" as="geometry" />
        </mxCell>
        <mxCell id="hlwljTOc6sQai6QMBjsx-38" value="มี" style="shape=rhombus;perimeter=rhombusPerimeter;whiteSpace=wrap;html=1;align=center;" parent="1" vertex="1">
          <mxGeometry x="460" y="505" width="120" height="60" as="geometry" />
        </mxCell>
        <mxCell id="hlwljTOc6sQai6QMBjsx-39" value="ถนน" style="ellipse;whiteSpace=wrap;html=1;align=center;" parent="1" vertex="1">
          <mxGeometry x="605" y="1060" width="50" height="30" as="geometry" />
        </mxCell>
        <mxCell id="hlwljTOc6sQai6QMBjsx-40" value="ตำบล/แขวง" style="ellipse;whiteSpace=wrap;html=1;align=center;" parent="1" vertex="1">
          <mxGeometry x="735" y="1025" width="70" height="40" as="geometry" />
        </mxCell>
        <mxCell id="hlwljTOc6sQai6QMBjsx-41" value="อำเภอ/เขต" style="ellipse;whiteSpace=wrap;html=1;align=center;" parent="1" vertex="1">
          <mxGeometry x="520" y="1060" width="70" height="40" as="geometry" />
        </mxCell>
        <mxCell id="hlwljTOc6sQai6QMBjsx-42" value="จังหวัด" style="ellipse;whiteSpace=wrap;html=1;align=center;" parent="1" vertex="1">
          <mxGeometry x="680" y="1050" width="50" height="30" as="geometry" />
        </mxCell>
        <mxCell id="hlwljTOc6sQai6QMBjsx-43" value="เบอร์มือถือ" style="ellipse;shape=doubleEllipse;margin=3;whiteSpace=wrap;html=1;align=center;" parent="1" vertex="1">
          <mxGeometry x="435" y="820" width="100" height="40" as="geometry" />
        </mxCell>
        <mxCell id="hlwljTOc6sQai6QMBjsx-44" value="Email" style="ellipse;whiteSpace=wrap;html=1;align=center;" parent="1" vertex="1">
          <mxGeometry x="757" y="700" width="70" height="30" as="geometry" />
        </mxCell>
        <mxCell id="hlwljTOc6sQai6QMBjsx-48" value="" style="endArrow=none;html=1;rounded=0;exitX=1;exitY=0.5;exitDx=0;exitDy=0;entryX=0;entryY=0.5;entryDx=0;entryDy=0;" parent="1" source="hlwljTOc6sQai6QMBjsx-28" target="hlwljTOc6sQai6QMBjsx-27" edge="1">
          <mxGeometry relative="1" as="geometry">
            <mxPoint x="650" y="830" as="sourcePoint" />
            <mxPoint x="810" y="830" as="targetPoint" />
          </mxGeometry>
        </mxCell>
        <mxCell id="hlwljTOc6sQai6QMBjsx-49" value="" style="endArrow=none;html=1;rounded=0;exitX=1;exitY=0;exitDx=0;exitDy=0;entryX=0;entryY=1;entryDx=0;entryDy=0;" parent="1" source="hlwljTOc6sQai6QMBjsx-29" target="hlwljTOc6sQai6QMBjsx-27" edge="1">
          <mxGeometry relative="1" as="geometry">
            <mxPoint x="650" y="830" as="sourcePoint" />
            <mxPoint x="810" y="830" as="targetPoint" />
          </mxGeometry>
        </mxCell>
        <mxCell id="hlwljTOc6sQai6QMBjsx-50" value="" style="endArrow=none;html=1;rounded=0;exitX=0.5;exitY=0;exitDx=0;exitDy=0;entryX=0.326;entryY=0.98;entryDx=0;entryDy=0;entryPerimeter=0;" parent="1" source="hlwljTOc6sQai6QMBjsx-41" target="hlwljTOc6sQai6QMBjsx-27" edge="1">
          <mxGeometry relative="1" as="geometry">
            <mxPoint x="522.6776695296637" y="1044.3933982822018" as="sourcePoint" />
            <mxPoint x="590.2512626584708" y="1015.6066017177982" as="targetPoint" />
          </mxGeometry>
        </mxCell>
        <mxCell id="hlwljTOc6sQai6QMBjsx-51" value="" style="endArrow=none;html=1;rounded=0;exitX=0.5;exitY=0;exitDx=0;exitDy=0;entryX=0.5;entryY=1;entryDx=0;entryDy=0;" parent="1" source="hlwljTOc6sQai6QMBjsx-39" target="hlwljTOc6sQai6QMBjsx-27" edge="1">
          <mxGeometry relative="1" as="geometry">
            <mxPoint x="532.6776695296637" y="1054.3933982822018" as="sourcePoint" />
            <mxPoint x="600.2512626584708" y="1025.6066017177982" as="targetPoint" />
          </mxGeometry>
        </mxCell>
        <mxCell id="hlwljTOc6sQai6QMBjsx-52" value="" style="endArrow=none;html=1;rounded=0;exitX=0;exitY=0;exitDx=0;exitDy=0;entryX=1;entryY=1;entryDx=0;entryDy=0;" parent="1" source="hlwljTOc6sQai6QMBjsx-42" target="hlwljTOc6sQai6QMBjsx-27" edge="1">
          <mxGeometry relative="1" as="geometry">
            <mxPoint x="542.6776695296637" y="1064.3933982822018" as="sourcePoint" />
            <mxPoint x="610.2512626584708" y="1035.6066017177982" as="targetPoint" />
          </mxGeometry>
        </mxCell>
        <mxCell id="hlwljTOc6sQai6QMBjsx-53" value="" style="endArrow=none;html=1;rounded=0;exitX=0;exitY=0;exitDx=0;exitDy=0;entryX=1;entryY=0.5;entryDx=0;entryDy=0;" parent="1" source="hlwljTOc6sQai6QMBjsx-40" target="hlwljTOc6sQai6QMBjsx-27" edge="1">
          <mxGeometry relative="1" as="geometry">
            <mxPoint x="552.6776695296637" y="1074.3933982822018" as="sourcePoint" />
            <mxPoint x="620.2512626584708" y="1045.6066017177982" as="targetPoint" />
          </mxGeometry>
        </mxCell>
        <mxCell id="hlwljTOc6sQai6QMBjsx-55" value="Email" style="ellipse;whiteSpace=wrap;html=1;align=center;" parent="1" vertex="1">
          <mxGeometry x="410" y="180" width="70" height="30" as="geometry" />
        </mxCell>
        <mxCell id="hlwljTOc6sQai6QMBjsx-56" value="เบอร์มือถือ" style="ellipse;shape=doubleEllipse;margin=3;whiteSpace=wrap;html=1;align=center;" parent="1" vertex="1">
          <mxGeometry x="63.75" y="175" width="100" height="40" as="geometry" />
        </mxCell>
        <mxCell id="hlwljTOc6sQai6QMBjsx-57" value="ที่อยู่" style="ellipse;whiteSpace=wrap;html=1;align=center;" parent="1" vertex="1">
          <mxGeometry x="168.75" y="440" width="70" height="30" as="geometry" />
        </mxCell>
        <mxCell id="hlwljTOc6sQai6QMBjsx-58" value="บ้านเลข่ที่" style="ellipse;whiteSpace=wrap;html=1;align=center;" parent="1" vertex="1">
          <mxGeometry x="16.25" y="450" width="62.5" height="40" as="geometry" />
        </mxCell>
        <mxCell id="hlwljTOc6sQai6QMBjsx-59" value="หมู่" style="ellipse;whiteSpace=wrap;html=1;align=center;" parent="1" vertex="1">
          <mxGeometry x="68.75" y="490" width="50" height="30" as="geometry" />
        </mxCell>
        <mxCell id="hlwljTOc6sQai6QMBjsx-60" value="ถนน" style="ellipse;whiteSpace=wrap;html=1;align=center;" parent="1" vertex="1">
          <mxGeometry x="203.75" y="520" width="50" height="30" as="geometry" />
        </mxCell>
        <mxCell id="hlwljTOc6sQai6QMBjsx-61" value="ตำบล/แขวง" style="ellipse;whiteSpace=wrap;html=1;align=center;" parent="1" vertex="1">
          <mxGeometry x="333.75" y="485" width="70" height="40" as="geometry" />
        </mxCell>
        <mxCell id="hlwljTOc6sQai6QMBjsx-62" value="อำเภอ/เขต" style="ellipse;whiteSpace=wrap;html=1;align=center;" parent="1" vertex="1">
          <mxGeometry x="118.75" y="520" width="70" height="40" as="geometry" />
        </mxCell>
        <mxCell id="hlwljTOc6sQai6QMBjsx-63" value="จังหวัด" style="ellipse;whiteSpace=wrap;html=1;align=center;" parent="1" vertex="1">
          <mxGeometry x="278.75" y="510" width="50" height="30" as="geometry" />
        </mxCell>
        <mxCell id="hlwljTOc6sQai6QMBjsx-64" value="" style="endArrow=none;html=1;rounded=0;exitX=1;exitY=0.5;exitDx=0;exitDy=0;entryX=0;entryY=0.5;entryDx=0;entryDy=0;" parent="1" source="hlwljTOc6sQai6QMBjsx-58" target="hlwljTOc6sQai6QMBjsx-57" edge="1">
          <mxGeometry relative="1" as="geometry">
            <mxPoint x="248.75" y="290" as="sourcePoint" />
            <mxPoint x="408.75" y="290" as="targetPoint" />
          </mxGeometry>
        </mxCell>
        <mxCell id="hlwljTOc6sQai6QMBjsx-65" value="" style="endArrow=none;html=1;rounded=0;exitX=1;exitY=0;exitDx=0;exitDy=0;entryX=0;entryY=1;entryDx=0;entryDy=0;" parent="1" source="hlwljTOc6sQai6QMBjsx-59" target="hlwljTOc6sQai6QMBjsx-57" edge="1">
          <mxGeometry relative="1" as="geometry">
            <mxPoint x="248.75" y="290" as="sourcePoint" />
            <mxPoint x="408.75" y="290" as="targetPoint" />
          </mxGeometry>
        </mxCell>
        <mxCell id="hlwljTOc6sQai6QMBjsx-66" value="" style="endArrow=none;html=1;rounded=0;exitX=0.5;exitY=0;exitDx=0;exitDy=0;entryX=0.326;entryY=0.98;entryDx=0;entryDy=0;entryPerimeter=0;" parent="1" source="hlwljTOc6sQai6QMBjsx-62" target="hlwljTOc6sQai6QMBjsx-57" edge="1">
          <mxGeometry relative="1" as="geometry">
            <mxPoint x="121.42766952966372" y="504.3933982822018" as="sourcePoint" />
            <mxPoint x="189.00126265847075" y="475.6066017177982" as="targetPoint" />
          </mxGeometry>
        </mxCell>
        <mxCell id="hlwljTOc6sQai6QMBjsx-67" value="" style="endArrow=none;html=1;rounded=0;exitX=0.5;exitY=0;exitDx=0;exitDy=0;entryX=0.5;entryY=1;entryDx=0;entryDy=0;" parent="1" source="hlwljTOc6sQai6QMBjsx-60" target="hlwljTOc6sQai6QMBjsx-57" edge="1">
          <mxGeometry relative="1" as="geometry">
            <mxPoint x="131.42766952966372" y="514.3933982822018" as="sourcePoint" />
            <mxPoint x="199.00126265847075" y="485.6066017177982" as="targetPoint" />
          </mxGeometry>
        </mxCell>
        <mxCell id="hlwljTOc6sQai6QMBjsx-68" value="" style="endArrow=none;html=1;rounded=0;exitX=0;exitY=0;exitDx=0;exitDy=0;entryX=1;entryY=1;entryDx=0;entryDy=0;" parent="1" source="hlwljTOc6sQai6QMBjsx-63" target="hlwljTOc6sQai6QMBjsx-57" edge="1">
          <mxGeometry relative="1" as="geometry">
            <mxPoint x="141.42766952966372" y="524.3933982822018" as="sourcePoint" />
            <mxPoint x="209.00126265847075" y="495.6066017177982" as="targetPoint" />
          </mxGeometry>
        </mxCell>
        <mxCell id="hlwljTOc6sQai6QMBjsx-69" value="" style="endArrow=none;html=1;rounded=0;exitX=0;exitY=0;exitDx=0;exitDy=0;entryX=1;entryY=0.5;entryDx=0;entryDy=0;" parent="1" source="hlwljTOc6sQai6QMBjsx-61" target="hlwljTOc6sQai6QMBjsx-57" edge="1">
          <mxGeometry relative="1" as="geometry">
            <mxPoint x="151.42766952966372" y="534.3933982822018" as="sourcePoint" />
            <mxPoint x="219.00126265847075" y="505.6066017177982" as="targetPoint" />
          </mxGeometry>
        </mxCell>
        <mxCell id="hlwljTOc6sQai6QMBjsx-70" style="edgeStyle=none;rounded=0;orthogonalLoop=1;jettySize=auto;html=1;exitX=0;exitY=0.5;exitDx=0;exitDy=0;" parent="1" source="hlwljTOc6sQai6QMBjsx-58" target="hlwljTOc6sQai6QMBjsx-58" edge="1">
          <mxGeometry relative="1" as="geometry" />
        </mxCell>
        <mxCell id="hlwljTOc6sQai6QMBjsx-71" value="" style="shape=link;html=1;rounded=0;exitX=1;exitY=1;exitDx=0;exitDy=0;entryX=0.5;entryY=0;entryDx=0;entryDy=0;" parent="1" source="hlwljTOc6sQai6QMBjsx-38" target="hlwljTOc6sQai6QMBjsx-25" edge="1">
          <mxGeometry relative="1" as="geometry">
            <mxPoint x="300" y="570" as="sourcePoint" />
            <mxPoint x="660" y="750" as="targetPoint" />
          </mxGeometry>
        </mxCell>
        <mxCell id="hlwljTOc6sQai6QMBjsx-72" value="1" style="resizable=0;html=1;align=right;verticalAlign=bottom;" parent="hlwljTOc6sQai6QMBjsx-71" connectable="0" vertex="1">
          <mxGeometry x="1" relative="1" as="geometry">
            <mxPoint x="15" as="offset" />
          </mxGeometry>
        </mxCell>
        <mxCell id="hlwljTOc6sQai6QMBjsx-74" value="" style="shape=link;html=1;rounded=0;entryX=0.5;entryY=1;entryDx=0;entryDy=0;" parent="1" source="hlwljTOc6sQai6QMBjsx-38" target="hlwljTOc6sQai6QMBjsx-1" edge="1">
          <mxGeometry relative="1" as="geometry">
            <mxPoint x="300" y="570" as="sourcePoint" />
            <mxPoint x="460" y="570" as="targetPoint" />
          </mxGeometry>
        </mxCell>
        <mxCell id="hlwljTOc6sQai6QMBjsx-75" value="1" style="resizable=0;html=1;align=right;verticalAlign=bottom;" parent="hlwljTOc6sQai6QMBjsx-74" connectable="0" vertex="1">
          <mxGeometry x="1" relative="1" as="geometry">
            <mxPoint x="45" y="20" as="offset" />
          </mxGeometry>
        </mxCell>
        <mxCell id="hlwljTOc6sQai6QMBjsx-76" value="มารดา" style="whiteSpace=wrap;html=1;align=center;" parent="1" vertex="1">
          <mxGeometry x="-165" y="790" width="100" height="40" as="geometry" />
        </mxCell>
        <mxCell id="hlwljTOc6sQai6QMBjsx-77" value="เลขประจำตัวประชาชน" style="ellipse;whiteSpace=wrap;html=1;align=center;fontStyle=4;" parent="1" vertex="1">
          <mxGeometry x="-20" y="865" width="100" height="40" as="geometry" />
        </mxCell>
        <mxCell id="hlwljTOc6sQai6QMBjsx-78" value="ที่อยู่" style="ellipse;whiteSpace=wrap;html=1;align=center;" parent="1" vertex="1">
          <mxGeometry x="-250" y="870" width="70" height="30" as="geometry" />
        </mxCell>
        <mxCell id="hlwljTOc6sQai6QMBjsx-79" value="บ้านเลข่ที่" style="ellipse;whiteSpace=wrap;html=1;align=center;" parent="1" vertex="1">
          <mxGeometry x="-500" y="925" width="50" height="30" as="geometry" />
        </mxCell>
        <mxCell id="hlwljTOc6sQai6QMBjsx-80" value="หมู่" style="ellipse;whiteSpace=wrap;html=1;align=center;" parent="1" vertex="1">
          <mxGeometry x="-460" y="955" width="50" height="30" as="geometry" />
        </mxCell>
        <mxCell id="hlwljTOc6sQai6QMBjsx-81" value="เพศ" style="ellipse;whiteSpace=wrap;html=1;align=center;" parent="1" vertex="1">
          <mxGeometry x="-220" y="670" width="70" height="30" as="geometry" />
        </mxCell>
        <mxCell id="hlwljTOc6sQai6QMBjsx-82" value="สัญชาติ" style="ellipse;whiteSpace=wrap;html=1;align=center;" parent="1" vertex="1">
          <mxGeometry x="-315" y="810" width="70" height="30" as="geometry" />
        </mxCell>
        <mxCell id="hlwljTOc6sQai6QMBjsx-83" value="วันเกิด" style="ellipse;whiteSpace=wrap;html=1;align=center;" parent="1" vertex="1">
          <mxGeometry x="-315" y="750" width="70" height="30" as="geometry" />
        </mxCell>
        <mxCell id="hlwljTOc6sQai6QMBjsx-84" value="อายุ" style="ellipse;whiteSpace=wrap;html=1;align=center;dashed=1;" parent="1" vertex="1">
          <mxGeometry x="30" y="800" width="50" height="30" as="geometry" />
        </mxCell>
        <mxCell id="hlwljTOc6sQai6QMBjsx-87" value="ถนน" style="ellipse;whiteSpace=wrap;html=1;align=center;" parent="1" vertex="1">
          <mxGeometry x="-325" y="985" width="50" height="30" as="geometry" />
        </mxCell>
        <mxCell id="hlwljTOc6sQai6QMBjsx-88" value="ตำบล/แขวง" style="ellipse;whiteSpace=wrap;html=1;align=center;" parent="1" vertex="1">
          <mxGeometry x="-195" y="950" width="70" height="40" as="geometry" />
        </mxCell>
        <mxCell id="hlwljTOc6sQai6QMBjsx-89" value="อำเภอ/เขต" style="ellipse;whiteSpace=wrap;html=1;align=center;" parent="1" vertex="1">
          <mxGeometry x="-410" y="985" width="70" height="40" as="geometry" />
        </mxCell>
        <mxCell id="hlwljTOc6sQai6QMBjsx-90" value="จังหวัด" style="ellipse;whiteSpace=wrap;html=1;align=center;" parent="1" vertex="1">
          <mxGeometry x="-250" y="975" width="50" height="30" as="geometry" />
        </mxCell>
        <mxCell id="hlwljTOc6sQai6QMBjsx-91" value="เบอร์มือถือ" style="ellipse;shape=doubleEllipse;margin=3;whiteSpace=wrap;html=1;align=center;" parent="1" vertex="1">
          <mxGeometry x="-105" y="920" width="100" height="40" as="geometry" />
        </mxCell>
        <mxCell id="hlwljTOc6sQai6QMBjsx-92" value="Email" style="ellipse;whiteSpace=wrap;html=1;align=center;" parent="1" vertex="1">
          <mxGeometry x="-305" y="690" width="70" height="30" as="geometry" />
        </mxCell>
        <mxCell id="hlwljTOc6sQai6QMBjsx-93" value="" style="endArrow=none;html=1;rounded=0;exitX=1;exitY=0.5;exitDx=0;exitDy=0;entryX=0;entryY=0.5;entryDx=0;entryDy=0;" parent="1" source="hlwljTOc6sQai6QMBjsx-79" target="hlwljTOc6sQai6QMBjsx-78" edge="1">
          <mxGeometry relative="1" as="geometry">
            <mxPoint x="-280" y="755" as="sourcePoint" />
            <mxPoint x="-120" y="755" as="targetPoint" />
          </mxGeometry>
        </mxCell>
        <mxCell id="hlwljTOc6sQai6QMBjsx-94" value="" style="endArrow=none;html=1;rounded=0;exitX=1;exitY=0;exitDx=0;exitDy=0;entryX=0;entryY=1;entryDx=0;entryDy=0;" parent="1" source="hlwljTOc6sQai6QMBjsx-80" target="hlwljTOc6sQai6QMBjsx-78" edge="1">
          <mxGeometry relative="1" as="geometry">
            <mxPoint x="-280" y="755" as="sourcePoint" />
            <mxPoint x="-120" y="755" as="targetPoint" />
          </mxGeometry>
        </mxCell>
        <mxCell id="hlwljTOc6sQai6QMBjsx-95" value="" style="endArrow=none;html=1;rounded=0;exitX=0.5;exitY=0;exitDx=0;exitDy=0;entryX=0.326;entryY=0.98;entryDx=0;entryDy=0;entryPerimeter=0;" parent="1" source="hlwljTOc6sQai6QMBjsx-89" target="hlwljTOc6sQai6QMBjsx-78" edge="1">
          <mxGeometry relative="1" as="geometry">
            <mxPoint x="-407.3223304703363" y="969.3933982822018" as="sourcePoint" />
            <mxPoint x="-339.74873734152925" y="940.6066017177982" as="targetPoint" />
          </mxGeometry>
        </mxCell>
        <mxCell id="hlwljTOc6sQai6QMBjsx-96" value="" style="endArrow=none;html=1;rounded=0;exitX=0.5;exitY=0;exitDx=0;exitDy=0;entryX=0.5;entryY=1;entryDx=0;entryDy=0;" parent="1" source="hlwljTOc6sQai6QMBjsx-87" target="hlwljTOc6sQai6QMBjsx-78" edge="1">
          <mxGeometry relative="1" as="geometry">
            <mxPoint x="-397.3223304703363" y="979.3933982822018" as="sourcePoint" />
            <mxPoint x="-329.74873734152925" y="950.6066017177982" as="targetPoint" />
          </mxGeometry>
        </mxCell>
        <mxCell id="hlwljTOc6sQai6QMBjsx-97" value="" style="endArrow=none;html=1;rounded=0;exitX=0;exitY=0;exitDx=0;exitDy=0;entryX=1;entryY=1;entryDx=0;entryDy=0;" parent="1" source="hlwljTOc6sQai6QMBjsx-90" target="hlwljTOc6sQai6QMBjsx-78" edge="1">
          <mxGeometry relative="1" as="geometry">
            <mxPoint x="-387.3223304703363" y="989.3933982822018" as="sourcePoint" />
            <mxPoint x="-319.74873734152925" y="960.6066017177982" as="targetPoint" />
          </mxGeometry>
        </mxCell>
        <mxCell id="hlwljTOc6sQai6QMBjsx-98" value="" style="endArrow=none;html=1;rounded=0;exitX=0;exitY=0;exitDx=0;exitDy=0;entryX=1;entryY=0.5;entryDx=0;entryDy=0;" parent="1" source="hlwljTOc6sQai6QMBjsx-88" target="hlwljTOc6sQai6QMBjsx-78" edge="1">
          <mxGeometry relative="1" as="geometry">
            <mxPoint x="-377.3223304703363" y="999.3933982822018" as="sourcePoint" />
            <mxPoint x="-309.74873734152925" y="970.6066017177982" as="targetPoint" />
          </mxGeometry>
        </mxCell>
        <mxCell id="hlwljTOc6sQai6QMBjsx-99" value="1" style="resizable=0;html=1;align=right;verticalAlign=bottom;" parent="1" connectable="0" vertex="1">
          <mxGeometry x="-99.88538271852008" y="790.280175576951" as="geometry" />
        </mxCell>
        <mxCell id="hlwljTOc6sQai6QMBjsx-101" value="มี" style="shape=rhombus;perimeter=rhombusPerimeter;whiteSpace=wrap;html=1;align=center;" parent="1" vertex="1">
          <mxGeometry x="-190" y="445" width="120" height="60" as="geometry" />
        </mxCell>
        <mxCell id="hlwljTOc6sQai6QMBjsx-102" value="" style="shape=link;html=1;rounded=0;exitX=0.5;exitY=1;exitDx=0;exitDy=0;entryX=0.432;entryY=0.045;entryDx=0;entryDy=0;entryPerimeter=0;" parent="1" source="hlwljTOc6sQai6QMBjsx-101" target="hlwljTOc6sQai6QMBjsx-76" edge="1">
          <mxGeometry relative="1" as="geometry">
            <mxPoint x="-350" y="510" as="sourcePoint" />
            <mxPoint x="-10" y="710" as="targetPoint" />
          </mxGeometry>
        </mxCell>
        <mxCell id="hlwljTOc6sQai6QMBjsx-104" value="" style="shape=link;html=1;rounded=0;entryX=0;entryY=0.5;entryDx=0;entryDy=0;" parent="1" source="hlwljTOc6sQai6QMBjsx-101" target="hlwljTOc6sQai6QMBjsx-1" edge="1">
          <mxGeometry relative="1" as="geometry">
            <mxPoint x="-350" y="510" as="sourcePoint" />
            <mxPoint x="-440" y="300" as="targetPoint" />
          </mxGeometry>
        </mxCell>
        <mxCell id="hlwljTOc6sQai6QMBjsx-105" value="1" style="resizable=0;html=1;align=right;verticalAlign=bottom;" parent="hlwljTOc6sQai6QMBjsx-104" connectable="0" vertex="1">
          <mxGeometry x="1" relative="1" as="geometry">
            <mxPoint x="-60" y="30" as="offset" />
          </mxGeometry>
        </mxCell>
        <mxCell id="hlwljTOc6sQai6QMBjsx-106" value="สมัคร" style="shape=rhombus;perimeter=rhombusPerimeter;whiteSpace=wrap;html=1;align=center;" parent="1" vertex="1">
          <mxGeometry x="757" y="250" width="120" height="60" as="geometry" />
        </mxCell>
        <mxCell id="hlwljTOc6sQai6QMBjsx-109" value="วันที่สมัคร" style="ellipse;whiteSpace=wrap;html=1;align=center;" parent="1" vertex="1">
          <mxGeometry x="755" y="160" width="100" height="40" as="geometry" />
        </mxCell>
        <mxCell id="hlwljTOc6sQai6QMBjsx-110" value="กีฬา" style="whiteSpace=wrap;html=1;align=center;" parent="1" vertex="1">
          <mxGeometry x="1220" y="250" width="100" height="40" as="geometry" />
        </mxCell>
        <mxCell id="hlwljTOc6sQai6QMBjsx-112" value="รหัสกีฬา" style="ellipse;whiteSpace=wrap;html=1;align=center;fontStyle=4;" parent="1" vertex="1">
          <mxGeometry x="1110" y="170" width="100" height="40" as="geometry" />
        </mxCell>
        <mxCell id="hlwljTOc6sQai6QMBjsx-113" value="ประเภท" style="ellipse;whiteSpace=wrap;html=1;align=center;" parent="1" vertex="1">
          <mxGeometry x="1350" y="190" width="100" height="40" as="geometry" />
        </mxCell>
        <mxCell id="hlwljTOc6sQai6QMBjsx-114" value="ชื่อกีฬา" style="ellipse;whiteSpace=wrap;html=1;align=center;fontStyle=4;" parent="1" vertex="1">
          <mxGeometry x="1240" y="150" width="100" height="40" as="geometry" />
        </mxCell>
        <mxCell id="hlwljTOc6sQai6QMBjsx-115" value="" style="shape=link;html=1;rounded=0;entryX=1;entryY=0.25;entryDx=0;entryDy=0;exitX=0;exitY=0.5;exitDx=0;exitDy=0;" parent="1" source="hlwljTOc6sQai6QMBjsx-106" target="hlwljTOc6sQai6QMBjsx-1" edge="1">
          <mxGeometry relative="1" as="geometry">
            <mxPoint x="1210" y="420" as="sourcePoint" />
            <mxPoint x="860" y="380" as="targetPoint" />
          </mxGeometry>
        </mxCell>
        <mxCell id="hlwljTOc6sQai6QMBjsx-116" value="1" style="resizable=0;html=1;align=right;verticalAlign=bottom;" parent="hlwljTOc6sQai6QMBjsx-115" connectable="0" vertex="1">
          <mxGeometry x="1" relative="1" as="geometry">
            <mxPoint x="21" as="offset" />
          </mxGeometry>
        </mxCell>
        <mxCell id="hlwljTOc6sQai6QMBjsx-117" value="" style="shape=link;html=1;rounded=0;exitX=1;exitY=0.5;exitDx=0;exitDy=0;entryX=0;entryY=0.5;entryDx=0;entryDy=0;" parent="1" source="hlwljTOc6sQai6QMBjsx-106" target="hlwljTOc6sQai6QMBjsx-110" edge="1">
          <mxGeometry relative="1" as="geometry">
            <mxPoint x="700" y="380" as="sourcePoint" />
            <mxPoint x="860" y="380" as="targetPoint" />
          </mxGeometry>
        </mxCell>
        <mxCell id="hlwljTOc6sQai6QMBjsx-118" value="1" style="resizable=0;html=1;align=right;verticalAlign=bottom;" parent="hlwljTOc6sQai6QMBjsx-117" connectable="0" vertex="1">
          <mxGeometry x="1" relative="1" as="geometry">
            <mxPoint x="-10" y="-10" as="offset" />
          </mxGeometry>
        </mxCell>
        <mxCell id="hlwljTOc6sQai6QMBjsx-120" style="edgeStyle=orthogonalEdgeStyle;rounded=0;orthogonalLoop=1;jettySize=auto;html=1;exitX=0.5;exitY=1;exitDx=0;exitDy=0;" parent="1" edge="1">
          <mxGeometry relative="1" as="geometry">
            <mxPoint x="1525" y="510" as="sourcePoint" />
            <mxPoint x="1525" y="510" as="targetPoint" />
          </mxGeometry>
        </mxCell>
        <mxCell id="hlwljTOc6sQai6QMBjsx-121" value="" style="endArrow=none;html=1;rounded=0;exitX=0.883;exitY=-0.01;exitDx=0;exitDy=0;exitPerimeter=0;" parent="1" source="hlwljTOc6sQai6QMBjsx-131" target="hlwljTOc6sQai6QMBjsx-129" edge="1">
          <mxGeometry width="50" height="50" relative="1" as="geometry">
            <mxPoint x="1650" y="530" as="sourcePoint" />
            <mxPoint x="1806.151788949814" y="429.1945756279114" as="targetPoint" />
          </mxGeometry>
        </mxCell>
        <mxCell id="hlwljTOc6sQai6QMBjsx-122" value="" style="endArrow=none;html=1;rounded=0;entryX=0;entryY=1;entryDx=0;entryDy=0;exitX=1;exitY=0.5;exitDx=0;exitDy=0;" parent="1" source="hlwljTOc6sQai6QMBjsx-131" target="hlwljTOc6sQai6QMBjsx-145" edge="1">
          <mxGeometry width="50" height="50" relative="1" as="geometry">
            <mxPoint x="1680" y="560" as="sourcePoint" />
            <mxPoint x="1800.6" y="558.56" as="targetPoint" />
          </mxGeometry>
        </mxCell>
        <mxCell id="hlwljTOc6sQai6QMBjsx-123" value="" style="endArrow=none;html=1;rounded=0;exitX=0.25;exitY=0;exitDx=0;exitDy=0;" parent="1" source="hlwljTOc6sQai6QMBjsx-131" target="hlwljTOc6sQai6QMBjsx-126" edge="1">
          <mxGeometry width="50" height="50" relative="1" as="geometry">
            <mxPoint x="1590" y="530" as="sourcePoint" />
            <mxPoint x="1613.8416752089915" y="432.7000038927051" as="targetPoint" />
          </mxGeometry>
        </mxCell>
        <mxCell id="hlwljTOc6sQai6QMBjsx-124" value="" style="endArrow=none;html=1;rounded=0;entryX=1;entryY=1;entryDx=0;entryDy=0;exitX=0;exitY=0;exitDx=0;exitDy=0;" parent="1" source="hlwljTOc6sQai6QMBjsx-131" target="hlwljTOc6sQai6QMBjsx-127" edge="1">
          <mxGeometry width="50" height="50" relative="1" as="geometry">
            <mxPoint x="1569.0581175753991" y="530" as="sourcePoint" />
            <mxPoint x="1579.9999999999943" y="485" as="targetPoint" />
          </mxGeometry>
        </mxCell>
        <mxCell id="hlwljTOc6sQai6QMBjsx-125" value="" style="endArrow=none;html=1;rounded=0;exitX=0.5;exitY=0;exitDx=0;exitDy=0;" parent="1" source="hlwljTOc6sQai6QMBjsx-131" target="hlwljTOc6sQai6QMBjsx-128" edge="1">
          <mxGeometry width="50" height="50" relative="1" as="geometry">
            <mxPoint x="1620" y="530" as="sourcePoint" />
            <mxPoint x="1695" y="410" as="targetPoint" />
          </mxGeometry>
        </mxCell>
        <mxCell id="hlwljTOc6sQai6QMBjsx-126" value="ชื่อ&amp;nbsp;" style="ellipse;whiteSpace=wrap;html=1;align=center;" parent="1" vertex="1">
          <mxGeometry x="1500" y="420" width="100" height="40" as="geometry" />
        </mxCell>
        <mxCell id="hlwljTOc6sQai6QMBjsx-127" value="&lt;u&gt;รหัสประจำตัวพนักงาน&lt;/u&gt;" style="ellipse;whiteSpace=wrap;html=1;align=center;fontStyle=4;" parent="1" vertex="1">
          <mxGeometry x="1440" y="470" width="100" height="40" as="geometry" />
        </mxCell>
        <mxCell id="hlwljTOc6sQai6QMBjsx-128" value="เพศ" style="ellipse;whiteSpace=wrap;html=1;align=center;" parent="1" vertex="1">
          <mxGeometry x="1720" y="420" width="100" height="40" as="geometry" />
        </mxCell>
        <mxCell id="hlwljTOc6sQai6QMBjsx-129" value="วันเดือนปีเกิด" style="ellipse;whiteSpace=wrap;html=1;align=center;" parent="1" vertex="1">
          <mxGeometry x="1730" y="480" width="100" height="40" as="geometry" />
        </mxCell>
        <mxCell id="hlwljTOc6sQai6QMBjsx-130" value="N" style="resizable=0;html=1;align=right;verticalAlign=bottom;" parent="1" connectable="0" vertex="1">
          <mxGeometry x="1570.3245026763643" y="565.0880792978703" as="geometry" />
        </mxCell>
        <mxCell id="hlwljTOc6sQai6QMBjsx-131" value="เจ้าหน้าที่" style="whiteSpace=wrap;html=1;align=center;" parent="1" vertex="1">
          <mxGeometry x="1570" y="540" width="100" height="50" as="geometry" />
        </mxCell>
        <mxCell id="hlwljTOc6sQai6QMBjsx-132" value="" style="endArrow=none;html=1;rounded=0;exitX=0;exitY=0.5;exitDx=0;exitDy=0;" parent="1" source="hlwljTOc6sQai6QMBjsx-138" target="hlwljTOc6sQai6QMBjsx-134" edge="1">
          <mxGeometry width="50" height="50" relative="1" as="geometry">
            <mxPoint x="1179.7" y="880" as="sourcePoint" />
            <mxPoint x="1203.5416752089916" y="782.7000038927051" as="targetPoint" />
          </mxGeometry>
        </mxCell>
        <mxCell id="hlwljTOc6sQai6QMBjsx-133" value="" style="endArrow=none;html=1;rounded=0;exitX=0;exitY=0;exitDx=0;exitDy=0;" parent="1" source="hlwljTOc6sQai6QMBjsx-138" target="hlwljTOc6sQai6QMBjsx-136" edge="1">
          <mxGeometry width="50" height="50" relative="1" as="geometry">
            <mxPoint x="1209.7" y="880" as="sourcePoint" />
            <mxPoint x="1250.3" y="830" as="targetPoint" />
          </mxGeometry>
        </mxCell>
        <mxCell id="hlwljTOc6sQai6QMBjsx-134" value="Password" style="ellipse;whiteSpace=wrap;html=1;align=center;" parent="1" vertex="1">
          <mxGeometry x="1355" y="740" width="100" height="40" as="geometry" />
        </mxCell>
        <mxCell id="hlwljTOc6sQai6QMBjsx-135" value="Username" style="ellipse;whiteSpace=wrap;html=1;align=center;fontStyle=4;" parent="1" vertex="1">
          <mxGeometry x="1420" y="790" width="100" height="40" as="geometry" />
        </mxCell>
        <mxCell id="hlwljTOc6sQai6QMBjsx-136" value="Status" style="ellipse;whiteSpace=wrap;html=1;align=center;" parent="1" vertex="1">
          <mxGeometry x="1405" y="690" width="100" height="40" as="geometry" />
        </mxCell>
        <mxCell id="hlwljTOc6sQai6QMBjsx-137" value="แอดมิน" style="whiteSpace=wrap;html=1;align=center;" parent="1" vertex="1">
          <mxGeometry x="1370" y="970" width="100" height="40" as="geometry" />
        </mxCell>
        <mxCell id="hlwljTOc6sQai6QMBjsx-138" value="สมัครใช้" style="shape=rhombus;perimeter=rhombusPerimeter;whiteSpace=wrap;html=1;align=center;" parent="1" vertex="1">
          <mxGeometry x="1520" y="730" width="120" height="60" as="geometry" />
        </mxCell>
        <mxCell id="hlwljTOc6sQai6QMBjsx-139" value="" style="shape=link;html=1;rounded=0;exitX=0.5;exitY=1;exitDx=0;exitDy=0;entryX=0.5;entryY=0;entryDx=0;entryDy=0;" parent="1" source="hlwljTOc6sQai6QMBjsx-131" target="hlwljTOc6sQai6QMBjsx-138" edge="1">
          <mxGeometry relative="1" as="geometry">
            <mxPoint x="979.6999999999998" y="830" as="sourcePoint" />
            <mxPoint x="1450" y="910" as="targetPoint" />
          </mxGeometry>
        </mxCell>
        <mxCell id="hlwljTOc6sQai6QMBjsx-140" value="M" style="resizable=0;html=1;align=left;verticalAlign=bottom;" parent="hlwljTOc6sQai6QMBjsx-139" connectable="0" vertex="1">
          <mxGeometry x="-1" relative="1" as="geometry">
            <mxPoint x="10" y="20" as="offset" />
          </mxGeometry>
        </mxCell>
        <mxCell id="hlwljTOc6sQai6QMBjsx-141" value="" style="endArrow=none;html=1;rounded=0;exitX=1;exitY=0.5;exitDx=0;exitDy=0;entryX=0.5;entryY=1;entryDx=0;entryDy=0;" parent="1" source="hlwljTOc6sQai6QMBjsx-137" target="hlwljTOc6sQai6QMBjsx-138" edge="1">
          <mxGeometry relative="1" as="geometry">
            <mxPoint x="1320" y="970" as="sourcePoint" />
            <mxPoint x="1480" y="970" as="targetPoint" />
          </mxGeometry>
        </mxCell>
        <mxCell id="hlwljTOc6sQai6QMBjsx-142" value="1" style="resizable=0;html=1;align=right;verticalAlign=bottom;" parent="hlwljTOc6sQai6QMBjsx-141" connectable="0" vertex="1">
          <mxGeometry x="1" relative="1" as="geometry">
            <mxPoint x="20" y="70" as="offset" />
          </mxGeometry>
        </mxCell>
        <mxCell id="hlwljTOc6sQai6QMBjsx-143" style="edgeStyle=orthogonalEdgeStyle;rounded=0;orthogonalLoop=1;jettySize=auto;html=1;exitX=0.5;exitY=1;exitDx=0;exitDy=0;" parent="1" source="hlwljTOc6sQai6QMBjsx-135" target="hlwljTOc6sQai6QMBjsx-135" edge="1">
          <mxGeometry relative="1" as="geometry" />
        </mxCell>
        <mxCell id="hlwljTOc6sQai6QMBjsx-144" value="" style="endArrow=none;html=1;rounded=0;exitX=0;exitY=1;exitDx=0;exitDy=0;" parent="1" source="hlwljTOc6sQai6QMBjsx-138" target="hlwljTOc6sQai6QMBjsx-135" edge="1">
          <mxGeometry width="50" height="50" relative="1" as="geometry">
            <mxPoint x="1284.6999999999998" y="930" as="sourcePoint" />
            <mxPoint x="1197.319471604818" y="876.7506249255821" as="targetPoint" />
          </mxGeometry>
        </mxCell>
        <mxCell id="hlwljTOc6sQai6QMBjsx-145" value="&lt;span style=&quot;font-size: 12px&quot;&gt;เบอร์โทร&lt;/span&gt;" style="ellipse;shape=doubleEllipse;margin=3;whiteSpace=wrap;html=1;align=center;pointerEvents=1;fontSize=14;startSize=30;" parent="1" vertex="1">
          <mxGeometry x="1740" y="550" width="100" height="40" as="geometry" />
        </mxCell>
        <mxCell id="hlwljTOc6sQai6QMBjsx-146" value="&lt;span style=&quot;font-size: 12px&quot;&gt;เบอร์โทร&lt;/span&gt;" style="ellipse;shape=doubleEllipse;margin=3;whiteSpace=wrap;html=1;align=center;pointerEvents=1;fontSize=14;startSize=30;" parent="1" vertex="1">
          <mxGeometry x="1740" y="550" width="100" height="40" as="geometry" />
        </mxCell>
        <mxCell id="hlwljTOc6sQai6QMBjsx-147" value="&lt;u&gt;รหัสประจำตัวเจ้าหน้าที่&lt;/u&gt;" style="ellipse;whiteSpace=wrap;html=1;align=center;fontStyle=4;" parent="1" vertex="1">
          <mxGeometry x="1440" y="470" width="100" height="40" as="geometry" />
        </mxCell>
        <mxCell id="hlwljTOc6sQai6QMBjsx-148" value="วันเดือนปีเกิด" style="ellipse;whiteSpace=wrap;html=1;align=center;" parent="1" vertex="1">
          <mxGeometry x="1730" y="480" width="100" height="40" as="geometry" />
        </mxCell>
        <mxCell id="hlwljTOc6sQai6QMBjsx-149" value="&lt;span style=&quot;font-size: 12px&quot;&gt;เบอร์โทร&lt;/span&gt;" style="ellipse;shape=doubleEllipse;margin=3;whiteSpace=wrap;html=1;align=center;pointerEvents=1;fontSize=14;startSize=30;" parent="1" vertex="1">
          <mxGeometry x="1330" y="1070" width="100" height="40" as="geometry" />
        </mxCell>
        <mxCell id="hlwljTOc6sQai6QMBjsx-150" value="&lt;u&gt;รหัสประจำตัว&lt;br&gt;แอดมิน&lt;/u&gt;" style="ellipse;whiteSpace=wrap;html=1;align=center;fontStyle=4;" parent="1" vertex="1">
          <mxGeometry x="1242.5" y="1005" width="100" height="40" as="geometry" />
        </mxCell>
        <mxCell id="hlwljTOc6sQai6QMBjsx-151" value="ชื่อ" style="ellipse;whiteSpace=wrap;html=1;align=center;" parent="1" vertex="1">
          <mxGeometry x="1570" y="960" width="100" height="40" as="geometry" />
        </mxCell>
        <mxCell id="hlwljTOc6sQai6QMBjsx-152" value="เพศ" style="ellipse;whiteSpace=wrap;html=1;align=center;" parent="1" vertex="1">
          <mxGeometry x="1560" y="1045" width="100" height="40" as="geometry" />
        </mxCell>
        <mxCell id="hlwljTOc6sQai6QMBjsx-153" value="วันเดือนปีเกิด" style="ellipse;whiteSpace=wrap;html=1;align=center;" parent="1" vertex="1">
          <mxGeometry x="1440" y="1090" width="100" height="40" as="geometry" />
        </mxCell>
        <mxCell id="hlwljTOc6sQai6QMBjsx-154" value="" style="endArrow=none;html=1;rounded=0;exitX=1;exitY=0.75;exitDx=0;exitDy=0;" parent="1" source="hlwljTOc6sQai6QMBjsx-137" target="hlwljTOc6sQai6QMBjsx-151" edge="1">
          <mxGeometry width="50" height="50" relative="1" as="geometry">
            <mxPoint x="1414.9999999999995" y="1165" as="sourcePoint" />
            <mxPoint x="1433.8416752089915" y="1057.7000038927051" as="targetPoint" />
          </mxGeometry>
        </mxCell>
        <mxCell id="hlwljTOc6sQai6QMBjsx-155" value="" style="endArrow=none;html=1;rounded=0;exitX=0.5;exitY=1;exitDx=0;exitDy=0;entryX=0.5;entryY=0;entryDx=0;entryDy=0;" parent="1" source="hlwljTOc6sQai6QMBjsx-137" target="hlwljTOc6sQai6QMBjsx-153" edge="1">
          <mxGeometry width="50" height="50" relative="1" as="geometry">
            <mxPoint x="1478.2999999999997" y="1164.5" as="sourcePoint" />
            <mxPoint x="1560.975048461718" y="1137.503139813236" as="targetPoint" />
          </mxGeometry>
        </mxCell>
        <mxCell id="hlwljTOc6sQai6QMBjsx-156" value="" style="endArrow=none;html=1;rounded=0;entryX=0.5;entryY=0;entryDx=0;entryDy=0;exitX=0;exitY=1;exitDx=0;exitDy=0;" parent="1" source="hlwljTOc6sQai6QMBjsx-137" target="hlwljTOc6sQai6QMBjsx-149" edge="1">
          <mxGeometry width="50" height="50" relative="1" as="geometry">
            <mxPoint x="1489.9999999999995" y="1190" as="sourcePoint" />
            <mxPoint x="1574.8544793961714" y="1209.2255678634542" as="targetPoint" />
          </mxGeometry>
        </mxCell>
        <mxCell id="hlwljTOc6sQai6QMBjsx-157" value="" style="endArrow=none;html=1;rounded=0;exitX=0;exitY=0.25;exitDx=0;exitDy=0;" parent="1" source="hlwljTOc6sQai6QMBjsx-137" target="hlwljTOc6sQai6QMBjsx-150" edge="1">
          <mxGeometry width="50" height="50" relative="1" as="geometry">
            <mxPoint x="1410" y="1019.9999999999998" as="sourcePoint" />
            <mxPoint x="1470.0000000000005" y="1129.9999999999998" as="targetPoint" />
          </mxGeometry>
        </mxCell>
        <mxCell id="hlwljTOc6sQai6QMBjsx-158" value="" style="endArrow=none;html=1;rounded=0;entryX=0;entryY=1;entryDx=0;entryDy=0;" parent="1" source="hlwljTOc6sQai6QMBjsx-137" target="hlwljTOc6sQai6QMBjsx-152" edge="1">
          <mxGeometry width="50" height="50" relative="1" as="geometry">
            <mxPoint x="1510.0000000000005" y="1010" as="sourcePoint" />
            <mxPoint x="1616.0714699664081" y="964.690703725885" as="targetPoint" />
          </mxGeometry>
        </mxCell>
        <mxCell id="hlwljTOc6sQai6QMBjsx-159" value="นามสกุล" style="ellipse;whiteSpace=wrap;html=1;align=center;" parent="1" vertex="1">
          <mxGeometry x="1605" y="420" width="100" height="40" as="geometry" />
        </mxCell>
        <mxCell id="hlwljTOc6sQai6QMBjsx-160" value="" style="endArrow=none;html=1;rounded=0;exitX=0.5;exitY=0;exitDx=0;exitDy=0;" parent="1" source="hlwljTOc6sQai6QMBjsx-131" target="hlwljTOc6sQai6QMBjsx-159" edge="1">
          <mxGeometry width="50" height="50" relative="1" as="geometry">
            <mxPoint x="1605" y="550" as="sourcePoint" />
            <mxPoint x="1572.8995250553357" y="469.748812638339" as="targetPoint" />
          </mxGeometry>
        </mxCell>
        <mxCell id="hlwljTOc6sQai6QMBjsx-161" value="นามสกุล" style="ellipse;whiteSpace=wrap;html=1;align=center;" parent="1" vertex="1">
          <mxGeometry x="1540" y="910" width="100" height="40" as="geometry" />
        </mxCell>
        <mxCell id="hlwljTOc6sQai6QMBjsx-162" value="" style="endArrow=none;html=1;rounded=0;exitX=1;exitY=0.5;exitDx=0;exitDy=0;" parent="1" source="hlwljTOc6sQai6QMBjsx-137" target="hlwljTOc6sQai6QMBjsx-161" edge="1">
          <mxGeometry width="50" height="50" relative="1" as="geometry">
            <mxPoint x="1510" y="1010" as="sourcePoint" />
            <mxPoint x="1583.8461538461543" y="997.6923076923078" as="targetPoint" />
          </mxGeometry>
        </mxCell>
        <mxCell id="hlwljTOc6sQai6QMBjsx-163" value="จัดการ" style="shape=rhombus;perimeter=rhombusPerimeter;whiteSpace=wrap;html=1;align=center;" parent="1" vertex="1">
          <mxGeometry x="970" y="525" width="120" height="60" as="geometry" />
        </mxCell>
        <mxCell id="hlwljTOc6sQai6QMBjsx-164" value="" style="shape=link;html=1;rounded=0;entryX=1;entryY=0;entryDx=0;entryDy=0;exitX=0.5;exitY=1;exitDx=0;exitDy=0;" parent="1" source="hlwljTOc6sQai6QMBjsx-110" target="hlwljTOc6sQai6QMBjsx-163" edge="1">
          <mxGeometry relative="1" as="geometry">
            <mxPoint x="1100" y="470" as="sourcePoint" />
            <mxPoint x="1260" y="470" as="targetPoint" />
          </mxGeometry>
        </mxCell>
        <mxCell id="hlwljTOc6sQai6QMBjsx-165" value="M" style="resizable=0;html=1;align=left;verticalAlign=bottom;" parent="hlwljTOc6sQai6QMBjsx-164" connectable="0" vertex="1">
          <mxGeometry x="-1" relative="1" as="geometry">
            <mxPoint x="10" y="30" as="offset" />
          </mxGeometry>
        </mxCell>
        <mxCell id="hlwljTOc6sQai6QMBjsx-167" value="" style="shape=link;html=1;rounded=0;entryX=1;entryY=0.5;entryDx=0;entryDy=0;exitX=0;exitY=0.5;exitDx=0;exitDy=0;" parent="1" source="hlwljTOc6sQai6QMBjsx-131" target="hlwljTOc6sQai6QMBjsx-163" edge="1">
          <mxGeometry relative="1" as="geometry">
            <mxPoint x="1470" y="590" as="sourcePoint" />
            <mxPoint x="1070" y="550" as="targetPoint" />
          </mxGeometry>
        </mxCell>
        <mxCell id="AjkqqVNWggVzYmdDa6cy-1" value="" style="endArrow=none;html=1;rounded=0;entryX=0.25;entryY=1;entryDx=0;entryDy=0;exitX=0.603;exitY=0;exitDx=0;exitDy=0;exitPerimeter=0;" edge="1" parent="1" source="hlwljTOc6sQai6QMBjsx-27" target="hlwljTOc6sQai6QMBjsx-25">
          <mxGeometry relative="1" as="geometry">
            <mxPoint x="570" y="880" as="sourcePoint" />
            <mxPoint x="550" y="900" as="targetPoint" />
          </mxGeometry>
        </mxCell>
        <mxCell id="AjkqqVNWggVzYmdDa6cy-2" value="" style="endArrow=none;html=1;rounded=0;entryX=0.5;entryY=1;entryDx=0;entryDy=0;exitX=0;exitY=0;exitDx=0;exitDy=0;" edge="1" parent="1" source="hlwljTOc6sQai6QMBjsx-26" target="hlwljTOc6sQai6QMBjsx-25">
          <mxGeometry relative="1" as="geometry">
            <mxPoint x="592.21" y="885" as="sourcePoint" />
            <mxPoint x="625" y="820" as="targetPoint" />
          </mxGeometry>
        </mxCell>
        <mxCell id="AjkqqVNWggVzYmdDa6cy-6" value="" style="endArrow=none;html=1;rounded=0;entryX=0;entryY=0.75;entryDx=0;entryDy=0;exitX=0.952;exitY=0.335;exitDx=0;exitDy=0;exitPerimeter=0;" edge="1" parent="1" source="hlwljTOc6sQai6QMBjsx-43" target="hlwljTOc6sQai6QMBjsx-25">
          <mxGeometry relative="1" as="geometry">
            <mxPoint x="592.21" y="885" as="sourcePoint" />
            <mxPoint x="625" y="820" as="targetPoint" />
          </mxGeometry>
        </mxCell>
        <mxCell id="AjkqqVNWggVzYmdDa6cy-7" value="" style="endArrow=none;html=1;rounded=0;entryX=0;entryY=0.25;entryDx=0;entryDy=0;exitX=1;exitY=0.5;exitDx=0;exitDy=0;" edge="1" parent="1" source="hlwljTOc6sQai6QMBjsx-33" target="hlwljTOc6sQai6QMBjsx-25">
          <mxGeometry relative="1" as="geometry">
            <mxPoint x="540.1999999999998" y="843.4000000000001" as="sourcePoint" />
            <mxPoint x="600" y="810" as="targetPoint" />
          </mxGeometry>
        </mxCell>
        <mxCell id="AjkqqVNWggVzYmdDa6cy-8" value="" style="endArrow=none;html=1;rounded=0;entryX=0;entryY=0;entryDx=0;entryDy=0;exitX=1;exitY=1;exitDx=0;exitDy=0;" edge="1" parent="1" source="hlwljTOc6sQai6QMBjsx-34" target="hlwljTOc6sQai6QMBjsx-25">
          <mxGeometry relative="1" as="geometry">
            <mxPoint x="510" y="785.28" as="sourcePoint" />
            <mxPoint x="600" y="790" as="targetPoint" />
          </mxGeometry>
        </mxCell>
        <mxCell id="AjkqqVNWggVzYmdDa6cy-9" value="" style="endArrow=none;html=1;rounded=0;entryX=0.75;entryY=0;entryDx=0;entryDy=0;exitX=0;exitY=1;exitDx=0;exitDy=0;" edge="1" parent="1" source="hlwljTOc6sQai6QMBjsx-44" target="hlwljTOc6sQai6QMBjsx-25">
          <mxGeometry relative="1" as="geometry">
            <mxPoint x="519.7487373415292" y="745.6066017177982" as="sourcePoint" />
            <mxPoint x="600" y="780" as="targetPoint" />
          </mxGeometry>
        </mxCell>
        <mxCell id="AjkqqVNWggVzYmdDa6cy-10" value="" style="endArrow=none;html=1;rounded=0;exitX=0;exitY=0;exitDx=0;exitDy=0;" edge="1" parent="1" source="hlwljTOc6sQai6QMBjsx-32">
          <mxGeometry relative="1" as="geometry">
            <mxPoint x="777.2512626584708" y="735.606601717798" as="sourcePoint" />
            <mxPoint x="690" y="780" as="targetPoint" />
          </mxGeometry>
        </mxCell>
        <mxCell id="AjkqqVNWggVzYmdDa6cy-11" value="" style="endArrow=none;html=1;rounded=0;exitX=0;exitY=0;exitDx=0;exitDy=0;entryX=1;entryY=0.5;entryDx=0;entryDy=0;" edge="1" parent="1" source="hlwljTOc6sQai6QMBjsx-35" target="hlwljTOc6sQai6QMBjsx-25">
          <mxGeometry relative="1" as="geometry">
            <mxPoint x="790.2512626584708" y="774.3933982822018" as="sourcePoint" />
            <mxPoint x="700" y="790" as="targetPoint" />
          </mxGeometry>
        </mxCell>
        <mxCell id="AjkqqVNWggVzYmdDa6cy-12" value="" style="endArrow=none;html=1;rounded=0;exitX=0;exitY=0;exitDx=0;exitDy=0;entryX=1;entryY=1;entryDx=0;entryDy=0;" edge="1" parent="1" source="hlwljTOc6sQai6QMBjsx-1" target="hlwljTOc6sQai6QMBjsx-5">
          <mxGeometry relative="1" as="geometry">
            <mxPoint x="-20" y="130" as="sourcePoint" />
            <mxPoint x="150" y="135" as="targetPoint" />
          </mxGeometry>
        </mxCell>
        <mxCell id="AjkqqVNWggVzYmdDa6cy-13" value="" style="endArrow=none;html=1;rounded=0;entryX=1;entryY=0;entryDx=0;entryDy=0;" edge="1" parent="1" target="hlwljTOc6sQai6QMBjsx-56">
          <mxGeometry relative="1" as="geometry">
            <mxPoint x="230" y="210" as="sourcePoint" />
            <mxPoint x="148.49873734152925" y="155.6066017177983" as="targetPoint" />
          </mxGeometry>
        </mxCell>
        <mxCell id="AjkqqVNWggVzYmdDa6cy-14" value="" style="endArrow=none;html=1;rounded=0;exitX=0;exitY=0.25;exitDx=0;exitDy=0;entryX=1;entryY=0;entryDx=0;entryDy=0;" edge="1" parent="1" source="hlwljTOc6sQai6QMBjsx-1" target="hlwljTOc6sQai6QMBjsx-15">
          <mxGeometry relative="1" as="geometry">
            <mxPoint x="248.75" y="230" as="sourcePoint" />
            <mxPoint x="158.49873734152925" y="165.6066017177983" as="targetPoint" />
          </mxGeometry>
        </mxCell>
        <mxCell id="AjkqqVNWggVzYmdDa6cy-15" value="" style="endArrow=none;html=1;rounded=0;entryX=0.5;entryY=1;entryDx=0;entryDy=0;" edge="1" parent="1" target="hlwljTOc6sQai6QMBjsx-3">
          <mxGeometry relative="1" as="geometry">
            <mxPoint x="239" y="210" as="sourcePoint" />
            <mxPoint x="148.49873734152925" y="155.6066017177983" as="targetPoint" />
          </mxGeometry>
        </mxCell>
        <mxCell id="AjkqqVNWggVzYmdDa6cy-16" value="" style="endArrow=none;html=1;rounded=0;entryX=0.5;entryY=1;entryDx=0;entryDy=0;exitX=0.25;exitY=0;exitDx=0;exitDy=0;" edge="1" parent="1" source="hlwljTOc6sQai6QMBjsx-1" target="hlwljTOc6sQai6QMBjsx-14">
          <mxGeometry relative="1" as="geometry">
            <mxPoint x="249" y="220" as="sourcePoint" />
            <mxPoint x="198.75" y="110" as="targetPoint" />
          </mxGeometry>
        </mxCell>
        <mxCell id="AjkqqVNWggVzYmdDa6cy-17" value="" style="endArrow=none;html=1;rounded=0;entryX=0;entryY=1;entryDx=0;entryDy=0;exitX=0.5;exitY=0;exitDx=0;exitDy=0;" edge="1" parent="1" source="hlwljTOc6sQai6QMBjsx-1" target="hlwljTOc6sQai6QMBjsx-13">
          <mxGeometry relative="1" as="geometry">
            <mxPoint x="259" y="230" as="sourcePoint" />
            <mxPoint x="208.75" y="120" as="targetPoint" />
          </mxGeometry>
        </mxCell>
        <mxCell id="AjkqqVNWggVzYmdDa6cy-18" value="" style="endArrow=none;html=1;rounded=0;exitX=0.75;exitY=0;exitDx=0;exitDy=0;" edge="1" parent="1" source="hlwljTOc6sQai6QMBjsx-1" target="hlwljTOc6sQai6QMBjsx-18">
          <mxGeometry relative="1" as="geometry">
            <mxPoint x="269" y="240" as="sourcePoint" />
            <mxPoint x="218.75" y="130" as="targetPoint" />
          </mxGeometry>
        </mxCell>
        <mxCell id="AjkqqVNWggVzYmdDa6cy-19" value="" style="endArrow=none;html=1;rounded=0;entryX=0;entryY=0.5;entryDx=0;entryDy=0;" edge="1" parent="1" target="hlwljTOc6sQai6QMBjsx-55">
          <mxGeometry relative="1" as="geometry">
            <mxPoint x="330" y="210" as="sourcePoint" />
            <mxPoint x="228.75" y="140" as="targetPoint" />
          </mxGeometry>
        </mxCell>
        <mxCell id="AjkqqVNWggVzYmdDa6cy-20" value="" style="endArrow=none;html=1;rounded=0;exitX=0.175;exitY=1.025;exitDx=0;exitDy=0;entryX=0.5;entryY=0;entryDx=0;entryDy=0;exitPerimeter=0;" edge="1" parent="1" source="hlwljTOc6sQai6QMBjsx-1" target="hlwljTOc6sQai6QMBjsx-57">
          <mxGeometry relative="1" as="geometry">
            <mxPoint x="238.75" y="230" as="sourcePoint" />
            <mxPoint x="128.49873734152925" y="244.39339828220182" as="targetPoint" />
          </mxGeometry>
        </mxCell>
        <mxCell id="AjkqqVNWggVzYmdDa6cy-22" value="" style="endArrow=none;html=1;rounded=0;exitX=1;exitY=0;exitDx=0;exitDy=0;" edge="1" parent="1" source="hlwljTOc6sQai6QMBjsx-78" target="hlwljTOc6sQai6QMBjsx-76">
          <mxGeometry relative="1" as="geometry">
            <mxPoint x="-174.74873734152902" y="965.8578643762692" as="sourcePoint" />
            <mxPoint x="-170" y="895" as="targetPoint" />
          </mxGeometry>
        </mxCell>
        <mxCell id="AjkqqVNWggVzYmdDa6cy-23" value="" style="endArrow=none;html=1;rounded=0;entryX=0.5;entryY=1;entryDx=0;entryDy=0;" edge="1" parent="1" source="hlwljTOc6sQai6QMBjsx-91" target="hlwljTOc6sQai6QMBjsx-76">
          <mxGeometry relative="1" as="geometry">
            <mxPoint x="-180.25126265847075" y="884.3933982822014" as="sourcePoint" />
            <mxPoint x="-128.3723532740687" y="840" as="targetPoint" />
          </mxGeometry>
        </mxCell>
        <mxCell id="AjkqqVNWggVzYmdDa6cy-24" value="" style="endArrow=none;html=1;rounded=0;entryX=1;entryY=1;entryDx=0;entryDy=0;exitX=0;exitY=0;exitDx=0;exitDy=0;" edge="1" parent="1" source="hlwljTOc6sQai6QMBjsx-77" target="hlwljTOc6sQai6QMBjsx-76">
          <mxGeometry relative="1" as="geometry">
            <mxPoint x="-55.65835376081964" y="930.4596847718308" as="sourcePoint" />
            <mxPoint x="-105" y="840" as="targetPoint" />
          </mxGeometry>
        </mxCell>
        <mxCell id="AjkqqVNWggVzYmdDa6cy-25" value="" style="endArrow=none;html=1;rounded=0;entryX=1;entryY=0.25;entryDx=0;entryDy=0;exitX=0;exitY=1;exitDx=0;exitDy=0;" edge="1" parent="1" source="hlwljTOc6sQai6QMBjsx-84" target="hlwljTOc6sQai6QMBjsx-76">
          <mxGeometry relative="1" as="geometry">
            <mxPoint x="4.644660940672566" y="880.8578643762689" as="sourcePoint" />
            <mxPoint x="-55" y="840" as="targetPoint" />
          </mxGeometry>
        </mxCell>
        <mxCell id="AjkqqVNWggVzYmdDa6cy-26" value="" style="endArrow=none;html=1;rounded=0;entryX=0.603;entryY=0.993;entryDx=0;entryDy=0;exitX=0.344;exitY=-0.095;exitDx=0;exitDy=0;entryPerimeter=0;exitPerimeter=0;" edge="1" parent="1" source="hlwljTOc6sQai6QMBjsx-76" target="hlwljTOc6sQai6QMBjsx-81">
          <mxGeometry relative="1" as="geometry">
            <mxPoint x="47.32233047033628" y="835.6066017177982" as="sourcePoint" />
            <mxPoint x="-55" y="810" as="targetPoint" />
          </mxGeometry>
        </mxCell>
        <mxCell id="AjkqqVNWggVzYmdDa6cy-27" value="" style="endArrow=none;html=1;rounded=0;entryX=0.96;entryY=0.807;entryDx=0;entryDy=0;exitX=0;exitY=0;exitDx=0;exitDy=0;entryPerimeter=0;" edge="1" parent="1" source="hlwljTOc6sQai6QMBjsx-76" target="hlwljTOc6sQai6QMBjsx-92">
          <mxGeometry relative="1" as="geometry">
            <mxPoint x="-120.59999999999991" y="796.2" as="sourcePoint" />
            <mxPoint x="-167.78999999999996" y="709.79" as="targetPoint" />
          </mxGeometry>
        </mxCell>
        <mxCell id="AjkqqVNWggVzYmdDa6cy-28" value="" style="endArrow=none;html=1;rounded=0;entryX=1;entryY=0.5;entryDx=0;entryDy=0;exitX=0;exitY=0.25;exitDx=0;exitDy=0;" edge="1" parent="1" source="hlwljTOc6sQai6QMBjsx-76" target="hlwljTOc6sQai6QMBjsx-83">
          <mxGeometry relative="1" as="geometry">
            <mxPoint x="-155" y="800" as="sourcePoint" />
            <mxPoint x="-227.79999999999995" y="724.21" as="targetPoint" />
          </mxGeometry>
        </mxCell>
        <mxCell id="AjkqqVNWggVzYmdDa6cy-29" value="" style="endArrow=none;html=1;rounded=0;entryX=1;entryY=0.5;entryDx=0;entryDy=0;exitX=0;exitY=0.75;exitDx=0;exitDy=0;" edge="1" parent="1" source="hlwljTOc6sQai6QMBjsx-76" target="hlwljTOc6sQai6QMBjsx-82">
          <mxGeometry relative="1" as="geometry">
            <mxPoint x="-160" y="810" as="sourcePoint" />
            <mxPoint x="-235" y="775" as="targetPoint" />
          </mxGeometry>
        </mxCell>
        <mxCell id="AjkqqVNWggVzYmdDa6cy-31" value="" style="endArrow=none;html=1;rounded=0;entryX=0.25;entryY=0;entryDx=0;entryDy=0;" edge="1" parent="1" source="hlwljTOc6sQai6QMBjsx-112" target="hlwljTOc6sQai6QMBjsx-110">
          <mxGeometry relative="1" as="geometry">
            <mxPoint x="1120" y="230" as="sourcePoint" />
            <mxPoint x="1280" y="230" as="targetPoint" />
          </mxGeometry>
        </mxCell>
        <mxCell id="AjkqqVNWggVzYmdDa6cy-32" value="" style="endArrow=none;html=1;rounded=0;exitX=0.5;exitY=1;exitDx=0;exitDy=0;" edge="1" parent="1" source="hlwljTOc6sQai6QMBjsx-114">
          <mxGeometry relative="1" as="geometry">
            <mxPoint x="1194.6506285990731" y="217.40044371699287" as="sourcePoint" />
            <mxPoint x="1260" y="250" as="targetPoint" />
          </mxGeometry>
        </mxCell>
        <mxCell id="AjkqqVNWggVzYmdDa6cy-33" value="" style="endArrow=none;html=1;rounded=0;" edge="1" parent="1" source="hlwljTOc6sQai6QMBjsx-113">
          <mxGeometry relative="1" as="geometry">
            <mxPoint x="1300" y="200" as="sourcePoint" />
            <mxPoint x="1300" y="250" as="targetPoint" />
          </mxGeometry>
        </mxCell>
        <mxCell id="AjkqqVNWggVzYmdDa6cy-34" value="" style="endArrow=none;html=1;rounded=0;entryX=0.5;entryY=0;entryDx=0;entryDy=0;" edge="1" parent="1" source="hlwljTOc6sQai6QMBjsx-109" target="hlwljTOc6sQai6QMBjsx-106">
          <mxGeometry relative="1" as="geometry">
            <mxPoint x="1194.6506285990731" y="217.40044371699287" as="sourcePoint" />
            <mxPoint x="1255" y="260" as="targetPoint" />
          </mxGeometry>
        </mxCell>
      </root>
    </mxGraphModel>
  </diagram>
</mxfile>
